<svg xmlns="http://www.w3.org/2000/svg" xmlns:xlink="http://www.w3.org/1999/xlink" viewBox="0 0 1200 399">
  <defs>
    <clipPath id="clip-path">
      <rect id="長方形_726" data-name="長方形 726" width="1200" height="109" transform="translate(4646 9679)" fill="none"/>
    </clipPath>
    <clipPath id="clip-path-2">
      <rect id="長方形_731" data-name="長方形 731" width="1200" height="135" fill="none"/>
    </clipPath>
  </defs>
  <g id="背景_青" data-name="背景　青" transform="translate(0 -372)">
    <g id="パス-sp-under" transform="translate(-4646 -9017)" clip-path="url(#clip-path)">
      <path id="パス_1050" data-name="パス 1050" d="M2597.558,7805.52c92.582,76.258,132.325,100.5,259.088,100.58s171.083-98.023,349.6-100.58,187.05,101.037,337.883,100.58,253.746-100.58,253.746-100.58V9040.307s-141.124-96.7-253.746-96.7-199.646,96.852-337.883,96.7-228.913-96.7-349.6-96.7-206.17,41.23-259.088,96.7C2596.44,8958.447,2596.512,7810.6,2597.558,7805.52Z" transform="translate(2049.252 747.726)" fill="#d3e5f4"/>
    </g>
    <rect id="長方形_666" data-name="長方形 666" width="1200" height="159" transform="translate(0 503)" fill="#d3e5f4"/>
    <g id="パス-sp-top" transform="translate(0 372)" clip-path="url(#clip-path-2)">
      <g id="マスクグループ_8" transform="translate(-1.133 22.793)">
        <path id="パス_1051" d="M-.3,22.793c92.585,75,132.319,98.864,259.085,98.958s171.1-96.415,349.6-98.958c137.425,1.444,213.319,97.891,337.883,98.958,182.17,3.077,253.755-98.958,253.755-98.958V1237.479s-141.128-95.128-253.755-95.128-199.66,95.285-337.883,95.128-228.926-95.128-349.6-95.128S52.614,1182.914-.3,1237.479C-1.418,1156.981-1.354,27.816-.3,22.793Z" transform="translate(1.115 -22.793)" fill="#d3e5f4"/>
        <path id="パス_1051-2" data-name="パス_1051" d="M930.841,121.751c167.394,6.185,253.755-98.958,253.755-98.958V1237.479" transform="translate(16.537 -22.793)" fill="#d3e5f4"/>
      </g>
    </g>
  </g>
</svg>
