<svg xmlns="http://www.w3.org/2000/svg" xmlns:xlink="http://www.w3.org/1999/xlink" viewBox="0 0 600 500.656">
  <defs>
    <clipPath id="clip-path">
      <rect id="長方形_725" data-name="長方形 725" width="600" height="70" fill="#d3e5f4" stroke="#707070" stroke-width="1"/>
    </clipPath>
    <clipPath id="clip-path-2">
      <rect id="長方形_726" data-name="長方形 726" width="600" height="55" fill="none"/>
    </clipPath>
  </defs>
  <g id="top-sp-kvbg" transform="translate(0 -213)">
    <g id="マスクグループ_8" data-name="マスクグループ 8" transform="translate(0 213)" clip-path="url(#clip-path)">
      <path id="パス_1051" data-name="パス 1051" d="M2597.151,7805.5c46.288,38.762,66.159,51.084,129.536,51.125s85.536-49.825,174.789-51.125,93.52,51.356,168.932,51.125,126.866-51.125,126.866-51.125v627.646s-70.558-49.152-126.866-49.152-99.817,49.229-168.932,49.152-114.45-49.152-174.789-49.152-103.079,20.955-129.536,49.152C2596.593,8391.535,2596.628,7808.079,2597.151,7805.5Z" transform="translate(-2597.313 -7793.713)" fill="#d3e5f4"/>
    </g>
    <g id="マスクグループ_9" data-name="マスクグループ 9" transform="translate(0 658.656)" clip-path="url(#clip-path-2)">
      <path id="パス_1050" data-name="パス 1050" d="M2597.151,7805.5c46.288,38.762,66.159,51.084,129.536,51.125s85.536-49.825,174.789-51.125,93.52,51.356,168.932,51.125,126.866-51.125,126.866-51.125v627.646s-70.558-49.152-126.866-49.152-99.817,49.229-168.932,49.152-114.45-49.152-174.789-49.152-103.079,20.955-129.536,49.152C2596.593,8391.535,2596.628,7808.079,2597.151,7805.5Z" transform="translate(-2596.746 -8377.829)" fill="#d3e5f4"/>
    </g>
    <rect id="長方形_727" data-name="長方形 727" width="600" height="376.656" transform="translate(0 283)" fill="#d3e5f4"/>
  </g>
</svg>
