<?xml version="1.0" encoding="UTF-8"?>
<svg id="Layer_1" xmlns="http://www.w3.org/2000/svg" version="1.1" viewBox="0 0 233.06 65.88">
  <!-- Generator: Adobe Illustrator 30.1.0, SVG Export Plug-In . SVG Version: 2.1.1 Build 136)  -->
  <defs>
    <style>
      .st0 {
        fill: none;
      }

      .st1 {
        fill: #f2984f;
      }

      .st2 {
        fill: #00b8ee;
      }

      .st3 {
        fill: #d95b0d;
      }

      .st4 {
        fill: #8bc56c;
      }

      .st5 {
        fill: #b44906;
      }

      .st6 {
        fill: #ed85a7;
      }
    </style>
  </defs>
  <g id="_レイヤー_1">
    <path fill="#b44906" d="M208.05,16.48c-.2.3-.6.4-.9.2-2.2-1.4-4.2-3.6-5.5-6.2-.6-1.2-1.2-2.4-1.6-3.7-.2.7-.4,1.5-.7,2.3-1.1,2.7-2.9,5.3-5.9,7.6-.3.2-.7.2-.9-.1s-.2-.7.1-.9c2.8-2.1,4.5-4.6,5.5-7,1-2.5,1.2-5,1.2-7.2s.3-.8.7-.8.7.4.7.8v1c0,2.4.6,4.8,2.1,7.4,1.3,2.4,3.1,4.5,5.1,5.7.3.2.4.6.2.9h-.1Z"/>
    <path fill="#b44906" d="M189.45,8.98c0,.3-.3.6-.6.6h-5.4l-2.9,5.5,5.9-1-1.2-1.6c-.2-.3-.1-.6.2-.8s.6-.1.8.2l3.1,4.2c.2.3.1.7-.1.9-.3.2-.7,0-.9-.2l-1.1-1.5-9.3,1.6c-.3,0-.6-.2-.7-.5,0-.3.2-.6.5-.7l1.4-.2,3-5.8h-4c-.3,0-.6-.3-.6-.6s.3-.6.6-.6h4.8v-3.8h-3.7c-.3,0-.6-.3-.6-.6s.3-.6.6-.6h3.7V.88c0-.3.3-.6.6-.6s.6.3.6.6v2.6h3.8c.3,0,.6.3.6.6s-.3.6-.6.6h-3.8v3.8h4.8c.3,0,.6.3.6.6l-.1-.1ZM176.55,3.18c-.2.2-.6.2-.8,0l-1.6-1.5c-.2-.2-.2-.6,0-.8s.6-.2.8,0l1.6,1.5c.2.2.2.6,0,.8ZM175.35,7.38c-.2.2-.6.3-.8,0l-1.4-1.2c-.2-.2-.3-.6,0-.8.2-.2.6-.3.8,0l1.4,1.2c.2.2.3.6,0,.8ZM176.25,11.18l-2.2,5.4c-.1.3-.5.5-.8.3-.3-.1-.5-.5-.3-.8l2.2-5.4c.1-.3.5-.5.8-.3s.5.5.3.8Z"/>
    <path fill="#b44906" d="M169.55,4.28v8.9c0,1.9-1.6,3.4-3.4,3.4h-8c-1.9,0-3.4-1.5-3.4-3.4V4.28c0-1.9,1.6-3.4,3.4-3.4h8c1.9,0,3.4,1.5,3.4,3.4ZM168.35,13.18V4.28c0-1.2-1-2.2-2.2-2.2h-8c-1.2,0-2.2,1-2.2,2.2v8.9c0,1.2,1,2.2,2.2,2.2h8c1.2,0,2.2-1,2.2-2.2ZM167.35,6.18c0,.3-.2.6-.6.6h-2.1v4.8c0,1.1-.5,1.8-1,2.2-.4.3-.9.3-1.1.4-.2,0-.6-.2-.6-.6,0-.3.2-.6.6-.6.7,0,.9-.7.9-1.3v-4.8h-5.9c-.3,0-.6-.3-.6-.6s.2-.6.6-.6h5.8v-1.9c0-.3.3-.6.6-.6s.6.3.6.6v1.9h2.1c.3,0,.6.3.6.6l.1-.1ZM160.35,8.28l1.1,1.6c.2.3,0,.6-.2.8-.3.2-.6,0-.8-.2l-1.1-1.5c-.2-.3,0-.6.2-.8.3-.2.6-.1.8.2v-.1Z"/>
    <path fill="#b44906" d="M151.95,15.98c0,.3-.3.6-.6.6h-8.7c-.3,0-.6-.3-.6-.6s.3-.6.6-.6h3.8V7.08h-3.2c-.3,0-.6-.3-.6-.6s.3-.6.6-.6h3.2V.88c0-.4.3-.7.7-.7s.7.3.7.7v4.9h2.9c.3,0,.6.3.6.6s-.3.6-.6.6h-3v8.3h3.6c.3,0,.6.3.6.6v.1ZM141.65,11.58c-.2.2-.6.2-.8,0l-1.8-1.7v6.7c0,.3-.3.6-.6.6s-.6-.3-.6-.6v-6.7c-.7.6-1.5,1.3-2.4,1.9-.3.2-.6.1-.8-.1-.2-.3-.1-.6.1-.8,1.7-1.2,4.3-3.5,5.3-5.3.2-.3.1-.6-.3-.6h-4.3c-.3,0-.6-.3-.6-.6s.3-.6.6-.6h2.2V.88c0-.4.3-.6.6-.6s.6.3.6.6v2.9h1c1.3,0,1.9,1.3,1.2,2.5-.5.8-1.2,1.5-1.8,2.2l2.4,2.3c.2.2.2.6,0,.8h0Z"/>
    <path fill="#b44906" d="M124.15,8.18c0,.3-.2.6-.5.6h-.6v5.7c0,1.6-.9,2.4-1.8,2.5-.3,0-.7-.2-.7-.5s.2-.6.6-.7c.6,0,.8-.8.8-1.3v-5.6l-3.8.3c0,2.3-.2,5.5-1.4,7.5-.2.3-.5.4-.8.2-.3-.2-.4-.5-.2-.8,1-1.8,1.2-4.6,1.2-6.7h-1c-.3.1-.6-.2-.7-.5s.2-.6.6-.6h1.1v-3.5c0-1.3.9-2.4,2.2-2.5l.9-1.9c.2-.3.5-.5.8-.3s.5.5.3.8l-.6,1.4c1.5,0,2.6,1,2.6,2.5v2.9h.5c.3,0,.6.2.6.6l-.1-.1ZM133.05,5.18c-.2,1-.9,1.9-2,1.9s-1.8-.7-1.8-1.8v-2.5c0-.7-.5-1.1-1.2-1.1s-1.2.4-1.2,1.1,0,1.5-.2,2.2-.7,1.4-1.5,2c-.3.2-.6.2-.9,0-.2-.3-.2-.6,0-.9.6-.5.9-.9,1.1-1.4.2-.5.2-1.1.2-1.8,0-1.3,1.1-2.3,2.5-2.3s2.4,1,2.4,2.3v2.5c0,.4.2.6.6.6s.8-.5.8-.9c0-.3.3-.6.7-.5.3,0,.6.4.5.7v-.1ZM118.05,8.08l3.8-.3v-3c0-.8-.5-1.3-1.3-1.3h-1.1c-.9,0-1.3.5-1.3,1.3v3.3h-.1ZM120.15,4.88l.6,1.2c.1.3,0,.6-.3.8-.3.1-.6,0-.8-.3l-.6-1.2c-.1-.3,0-.6.3-.8.3-.1.6,0,.8.3ZM132.75,16.58c-.1.3-.5.5-.8.3-1.3-.6-2.5-1.4-3.6-2.4-1,.9-2.3,1.7-3.7,2.4-.3.1-.7,0-.8-.3s0-.7.3-.8c1.3-.6,2.4-1.3,3.4-2.2-.9-1-1.6-2.2-1.9-3.4-.3-1.2.4-2.2,1.7-2.2h2.7c1.2,0,1.9,1.2,1.5,2.2-.3,1-1.1,2.2-2.2,3.3.9.9,2,1.7,3.2,2.1.3.1.5.5.3.8l-.1.2ZM130.25,9.98c0-.3,0-.6-.3-.6h-2.7c-.4,0-.6.2-.5.6.3,1,.9,2,1.7,2.9,1-1,1.6-2.1,1.9-2.9h-.1ZM120.45,10.28v3.3c0,.3-.3.6-.6.6s-.6-.2-.6-.6v-3.3c0-.3.3-.6.6-.6s.6.3.6.6Z"/>
    <path fill="#b44906" d="M113.15,8.28c0,.4-.2.7-.7.7h-14.7c-.4,0-.7-.3-.7-.7s.3-.7.7-.7h14.7c.4,0,.7.3.7.7Z"/>
    <path fill="#d95b0d" d="M142.85,45.18c-.2.7-1,1-1.6.8-3.9-1.4-9.9-2-14.2-2-.7,0-1.3-.5-1.3-1.2s.6-1.3,1.3-1.3c4.6,0,10.7.6,15,2.1.7.2,1,1,.8,1.6ZM143.75,63.18c.1.7-.3,1.3-1,1.4-2.3.4-5.6.6-9.2.3-2.8-.2-7.4-.9-9.4-3.1-1.3-1.4-1.3-3.3-.6-4.9.3-.6,1-.9,1.7-.6.6.3.9,1,.6,1.7-.3.8-.4,1.5.1,2.2,1.3,1.5,5.8,2.1,7.7,2.2,4.1.4,7.7-.1,8.4-.2.8-.1,1.4.2,1.6,1h.1Z"/>
    <path fill="#b44906" d="M185.55,56.88c0,2.1-.8,4-2.3,5.5-2.4,2.3-7,3.5-10.2,3.5-.7,0-1.3-.5-1.3-1.2s.5-1.2,1.2-1.3c2.7-.1,6.6-1.1,8.5-2.9,1.1-1,1.5-2.2,1.5-3.6,0-3.2-2.5-4.9-5.6-4.9s-7.1,1.1-10.6,4.4l-1.8,2.1c-.4.5-1.3.6-1.8.2-.5-.4-.6-1.3-.1-1.8,4.4-5,8.7-10,13.3-14.8-1.7.2-4.1.5-9.9.6-.7,0-1.3-.5-1.3-1.2s.5-1.3,1.2-1.3c6.8-.1,8.7-.4,10.4-.7.5,0,1.1,0,1.6.1.7.3,1.2.9,1.2,1.6,0,.8-.4,1.3-.8,1.8-1.9,2.1-4.5,4.9-6.9,7.6,2-.8,3.9-1.2,5.6-1.2,4.4,0,8.2,2.6,8.2,7.3l-.1.2Z"/>
    <path fill="#d95b0d" d="M231.25,39.58c-.2.6-.8.9-1.4.7-5.6-1.7-10.1-4.5-14.8-7.8-.6-.5-1.7-.2-2.1.6-1.4,2.9-4.4,8.6-8.6,13.9-.4.5-1.1.6-1.6.2-.5-.4-.6-1.1-.2-1.6,4-5.1,7-10.7,8.3-13.5.5-1,1.4-1.6,2.4-1.9,1-.2,2.1,0,3,.5,4.5,3.2,8.9,5.9,14.2,7.5.6.2.9.8.7,1.4h.1ZM223.15,40.58c.1.6-.2,1.2-.8,1.3l-11.2,2.8c-.6.1-1.1-.2-1.3-.8-.1-.6.2-1.2.8-1.3l11.2-2.8c.6-.1,1.2.2,1.3.8ZM230.75,45.08c.1.6-.2,1.1-.8,1.3l-12.5,3.1-2.7,7.9,11.6-4.4-2.3-1.5c-.5-.3-.7-1-.4-1.5s1-.7,1.5-.3l7.4,4.6c.5.3.7,1,.3,1.5-.3.5-1,.7-1.5.3l-2.9-1.8-19,7.3c-.5.2-1.1,0-1.3-.6-.2-.5,0-1.2.6-1.4l3.2-1.2,2.8-8.2-8.1,2c-.6.1-1.2-.2-1.3-.8s.2-1.1.8-1.3l23.3-5.8c.6-.1,1.1.2,1.3.8h0Z"/>
    <path fill="#b44906" d="M103.45,38.38c-.3.6-1.1.8-1.7.5-3.6-2-9.5-3.5-13.7-4.1-.7-.1-1.2-.7-1.1-1.4s.8-1.2,1.5-1.1c4.6.7,10.5,2.2,14.5,4.4.6.3.8,1.1.5,1.7ZM101.55,56.28c0,.7-.5,1.3-1.2,1.3-2.4,0-5.7-.3-9.1-1.2-2.7-.7-7.2-2-8.8-4.5-1-1.6-.8-3.5.2-5,.4-.6,1.2-.7,1.7-.3.6.4.8,1.2.4,1.7-.5.7-.7,1.4-.2,2.2,1,1.7,5.4,3,7.2,3.4,4,1,7.6,1.1,8.3,1.1s1.4.4,1.4,1.3h.1Z"/>
    <path class="st0" d="M60.55-2.22H-9.45v60H60.55V-2.22Z"/>
    <g>
      <g>
        <g>
          <path  fill="#f2984f" d="M38.45,23.58c.2-1,1.1-1.7,2.1-1.7h7.2c1,0,1.1-.4.2-.9l-11.3-6.5c-.8-.5-2.2-.5-3.1,0l-11.3,6.5c-.8.5-.7.9.2.9h7.2c1,0,1.9.8,2.1,1.7l3,16.6c.2,1,.5,1,.6,0l3-16.6h.1Z"/>
          <path  fill="#f2984f" d="M38.15,9.38c0,1.7-1.4,3-3,3s-3-1.4-3-3,1.4-3,3-3,3,1.4,3,3Z"/>
        </g>
        <g>
          <path fill="#8bc56c" d="M17.15,32.18c-.7-.6-1-1.8-.5-2.7l3.6-6.2c.5-.8.2-1.1-.6-.6l-11.3,6.5c-.8.5-1.5,1.7-1.5,2.7v13.1c0,1,.4,1.1.9.2l3.6-6.2c.5-.8,1.6-1.3,2.5-.9l15.9,5.7c.9.3,1.1,0,.3-.5l-12.9-10.9v-.2Z"/>
          <path fill="#8bc56c" d="M4.65,25.38c1.5.8,2,2.7,1.1,4.2-.8,1.5-2.7,2-4.2,1.1-1.5-.8-2-2.7-1.1-4.2.8-1.5,2.7-2,4.2-1.1Z"/>
        </g>
        <g>
          <path fill="#ed85a7" d="M53.05,32.18c.7-.6,1-1.8.5-2.7l-3.6-6.2c-.5-.8-.2-1.1.6-.6l11.3,6.5c.8.5,1.5,1.7,1.5,2.7v13.1c0,1-.4,1.1-.9.2l-3.6-6.2c-.5-.8-1.6-1.3-2.6-.9l-15.9,5.7c-.9.3-1.1,0-.3-.5l12.9-10.9.1-.2Z"/>
          <path fill="#ed85a7" d="M65.55,25.38c-1.5.8-2,2.7-1.1,4.2.8,1.5,2.7,2,4.2,1.1,1.5-.8,2-2.7,1.1-4.2-.8-1.5-2.7-2-4.2-1.1Z"/>
        </g>
      </g>
      <g>
        <path fill="#00b8ee" d="M6.35,48.68c-.9,0-.9.1,0,.3l27.2,5c.9.2,2.3.2,3.2,0l27.2-5c.9-.2.9-.3,0-.3H6.35Z"/>
        <path fill="#00b8ee" d="M14.85,56.38c-.9,0-.9.1,0,.3l18.7,3.4c.9.2,2.3.2,3.2,0l18.7-3.4c.9-.2.9-.3,0-.3H14.85Z"/>
        <path fill="#00b8ee" d="M20.05,62.48c-.9,0-.9.1,0,.3l13.4,2.5c.9.2,2.3.2,3.2,0l13.4-2.5c.9-.2.9-.3,0-.3h-30Z"/>
      </g>
    </g>
  </g>
</svg>