<?xml version="1.0" encoding="UTF-8"?>
<svg xmlns="http://www.w3.org/2000/svg" version="1.1" viewBox="0 0 245 69">
  <defs>
    <style>
      .cls-1 {
        fill: none;
      }

      .cls-2 {
        fill: #f2984f;
      }

      .cls-3 {
        fill: #00b8ee;
      }

      .cls-4 {
        fill: #d95b0d;
      }

      .cls-5 {
        fill: #8bc56c;
      }

      .cls-6 {
        fill: #b44906;
      }

      .cls-7 {
        fill: #ed85a7;
      }
    </style>
  </defs>
  <!-- Generator: Adobe Illustrator 28.7.10, SVG Export Plug-In . SVG Version: 1.2.0 Build 236)  -->
  <g>
    <g id="_レイヤー_1" data-name="レイヤー_1">
      <path class="cls-6" d="M217.5,18.7c-.2.3-.6.4-.9.2-2.2-1.4-4.2-3.6-5.5-6.2-.6-1.2-1.2-2.4-1.6-3.7-.2.7-.4,1.5-.7,2.3-1.1,2.7-2.9,5.3-5.9,7.6-.3.2-.7.2-.9-.1s-.2-.7.1-.9c2.8-2.1,4.5-4.6,5.5-7,1-2.5,1.2-5,1.2-7.2s.3-.8.7-.8.7.4.7.8,0,.7,0,1c0,2.4.6,4.8,2.1,7.4,1.3,2.4,3.1,4.5,5.1,5.7.3.2.4.6.2.9Z"/>
      <path class="cls-6" d="M198.9,11.2c0,.3-.3.6-.6.6h-5.4l-2.9,5.5,5.9-1-1.2-1.6c-.2-.3-.1-.6.2-.8.3-.2.6-.1.8.2l3.1,4.2c.2.3.1.7-.1.9-.3.2-.7,0-.9-.2l-1.1-1.5-9.3,1.6c-.3,0-.6-.2-.7-.5,0-.3.2-.6.5-.7l1.4-.2,3-5.8h-4c-.3,0-.6-.3-.6-.6s.3-.6.6-.6h4.8v-3.8h-3.7c-.3,0-.6-.3-.6-.6s.3-.6.6-.6h3.7v-2.6c0-.3.3-.6.6-.6s.6.3.6.6v2.6h3.8c.3,0,.6.3.6.6s-.3.6-.6.6h-3.8v3.8h4.8c.3,0,.6.3.6.6ZM186,5.4c-.2.2-.6.2-.8,0l-1.6-1.5c-.2-.2-.2-.6,0-.8s.6-.2.8,0l1.6,1.5c.2.2.2.6,0,.8ZM184.8,9.6c-.2.2-.6.3-.8,0l-1.4-1.2c-.2-.2-.3-.6,0-.8.2-.2.6-.3.8,0l1.4,1.2c.2.2.3.6,0,.8ZM185.7,13.4l-2.2,5.4c-.1.3-.5.5-.8.3-.3-.1-.5-.5-.3-.8l2.2-5.4c.1-.3.5-.5.8-.3s.5.5.3.8Z"/>
      <path class="cls-6" d="M179,6.5v8.9c0,1.9-1.6,3.4-3.4,3.4h-8c-1.9,0-3.4-1.5-3.4-3.4V6.5c0-1.9,1.6-3.4,3.4-3.4h8c1.9,0,3.4,1.5,3.4,3.4ZM177.8,15.4V6.5c0-1.2-1-2.2-2.2-2.2h-8c-1.2,0-2.2,1-2.2,2.2v8.9c0,1.2,1,2.2,2.2,2.2h8c1.2,0,2.2-1,2.2-2.2ZM176.8,8.4c0,.3-.2.6-.6.6h-2.1v4.8c0,1.1-.5,1.8-1,2.2-.4.3-.9.3-1.1.4-.2,0-.6-.2-.6-.6,0-.3.2-.6.6-.6.7,0,.9-.7.9-1.3v-4.8h-5.9c-.3,0-.6-.3-.6-.6s.2-.6.6-.6h5.8v-1.9c0-.3.3-.6.6-.6s.6.3.6.6v1.9h2.1c.3,0,.6.3.6.6ZM169.8,10.5l1.1,1.6c.2.3,0,.6-.2.8-.3.2-.6,0-.8-.2l-1.1-1.5c-.2-.3,0-.6.2-.8.3-.2.6-.1.8.2Z"/>
      <path class="cls-6" d="M161.4,18.2c0,.3-.3.6-.6.6h-8.7c-.3,0-.6-.3-.6-.6s.3-.6.6-.6h3.8v-8.3h-3.2c-.3,0-.6-.3-.6-.6s.3-.6.6-.6h3.2V3.1c0-.4.3-.7.7-.7s.7.3.7.7v4.9h2.9c.3,0,.6.3.6.6s-.3.6-.6.6h-3v8.3h3.6c.3,0,.6.3.6.6ZM151.1,13.8c-.2.2-.6.2-.8,0l-1.8-1.7v6.7c0,.3-.3.6-.6.6s-.6-.3-.6-.6v-6.7c-.7.6-1.5,1.3-2.4,1.9-.3.2-.6.1-.8-.1-.2-.3-.1-.6.1-.8,1.7-1.2,4.3-3.5,5.3-5.3.2-.3.1-.6-.3-.6h-4.3c-.3,0-.6-.3-.6-.6s.3-.6.6-.6h2.2v-2.9c0-.4.3-.6.6-.6s.6.3.6.6v2.9h1c1.3,0,1.9,1.3,1.2,2.5-.5.8-1.2,1.5-1.8,2.2l2.4,2.3c.2.2.2.6,0,.8Z"/>
      <path class="cls-6" d="M133.6,10.4c0,.3-.2.6-.5.6h-.6v5.7c0,1.6-.9,2.4-1.8,2.5-.3,0-.7-.2-.7-.5s.2-.6.6-.7c.6,0,.8-.8.8-1.3v-5.6l-3.8.3c0,2.3-.2,5.5-1.4,7.5-.2.3-.5.4-.8.2-.3-.2-.4-.5-.2-.8,1-1.8,1.2-4.6,1.2-6.7h-1c-.3.1-.6-.2-.7-.5s.2-.6.6-.6h1.1v-3.5c0-1.3.9-2.4,2.2-2.5l.9-1.9c.2-.3.5-.5.8-.3s.5.5.3.8l-.6,1.4c1.5,0,2.6,1,2.6,2.5v2.9s.5,0,.5,0c.3,0,.6.2.6.6ZM142.5,7.4c-.2,1-.9,1.9-2,1.9s-1.8-.7-1.8-1.8v-2.5c0-.7-.5-1.1-1.2-1.1s-1.2.4-1.2,1.1,0,1.5-.2,2.2-.7,1.4-1.5,2c-.3.2-.6.2-.9,0-.2-.3-.2-.6,0-.9.6-.5.9-.9,1.1-1.4.2-.5.2-1.1.2-1.8,0-1.3,1.1-2.3,2.5-2.3s2.4,1,2.4,2.3v2.5c0,.4.2.6.6.6s.8-.5.8-.9c0-.3.3-.6.7-.5.3,0,.6.4.5.7ZM127.5,10.3l3.8-.3v-3c0-.8-.5-1.3-1.3-1.3h-1.1c-.9,0-1.3.5-1.3,1.3v3.3ZM129.6,7.1l.6,1.2c.1.3,0,.6-.3.8-.3.1-.6,0-.8-.3l-.6-1.2c-.1-.3,0-.6.3-.8.3-.1.6,0,.8.3ZM142.2,18.8c-.1.3-.5.5-.8.3-1.3-.6-2.5-1.4-3.6-2.4-1,.9-2.3,1.7-3.7,2.4-.3.1-.7,0-.8-.3-.1-.3,0-.7.3-.8,1.3-.6,2.4-1.3,3.4-2.2-.9-1-1.6-2.2-1.9-3.4-.3-1.2.4-2.2,1.7-2.2h2.7c1.2,0,1.9,1.2,1.5,2.2-.3,1-1.1,2.2-2.2,3.3.9.9,2,1.7,3.2,2.1.3.1.5.5.3.8ZM139.7,12.2c0-.3,0-.6-.3-.6h-2.7c-.4,0-.6.2-.5.6.3,1,.9,2,1.7,2.9,1-1,1.6-2.1,1.9-2.9ZM129.9,12.5v3.3c0,.3-.3.6-.6.6s-.6-.2-.6-.6v-3.3c0-.3.3-.6.6-.6s.6.3.6.6Z"/>
      <path class="cls-6" d="M122.6,10.5c0,.4-.2.7-.7.7h-14.7c-.4,0-.7-.3-.7-.7s.3-.7.7-.7h14.7c.4,0,.7.3.7.7Z"/>
      <path class="cls-4" d="M152.3,47.4c-.2.7-1,1-1.6.8-3.9-1.4-9.9-2-14.2-2-.7,0-1.3-.5-1.3-1.2,0-.7.6-1.3,1.3-1.3,4.6,0,10.7.6,15,2.1.7.2,1,1,.8,1.6ZM153.2,65.4c.1.7-.3,1.3-1,1.4-2.3.4-5.6.6-9.2.3-2.8-.2-7.4-.9-9.4-3.1-1.3-1.4-1.3-3.3-.6-4.9.3-.6,1-.9,1.7-.6.6.3.9,1,.6,1.7-.3.8-.4,1.5.1,2.2,1.3,1.5,5.8,2.1,7.7,2.2,4.1.4,7.7-.1,8.4-.2.8-.1,1.4.2,1.6,1Z"/>
      <path class="cls-6" d="M195,59.1c0,2.1-.8,4-2.3,5.5-2.4,2.3-7,3.5-10.2,3.5-.7,0-1.3-.5-1.3-1.2s.5-1.2,1.2-1.3c2.7-.1,6.6-1.1,8.5-2.9,1.1-1,1.5-2.2,1.5-3.6,0-3.2-2.5-4.9-5.6-4.9s-7.1,1.1-10.6,4.4l-1.8,2.1c-.4.5-1.3.6-1.8.2-.5-.4-.6-1.3-.1-1.8,4.4-5,8.7-10,13.3-14.8-1.7.2-4.1.5-9.9.6-.7,0-1.3-.5-1.3-1.2s.5-1.3,1.2-1.3c6.8-.1,8.7-.4,10.4-.7.5,0,1.1,0,1.6.1.7.3,1.2.9,1.2,1.6,0,.8-.4,1.3-.8,1.8-1.9,2.1-4.5,4.9-6.9,7.6,2-.8,3.9-1.2,5.6-1.2,4.4,0,8.2,2.6,8.2,7.3Z"/>
      <path class="cls-4" d="M240.7,41.8c-.2.6-.8.9-1.4.7-5.6-1.7-10.1-4.5-14.8-7.8-.6-.5-1.7-.2-2.1.6-1.4,2.9-4.4,8.6-8.6,13.9-.4.5-1.1.6-1.6.2-.5-.4-.6-1.1-.2-1.6,4-5.1,7-10.7,8.3-13.5.5-1,1.4-1.6,2.4-1.9,1-.2,2.1,0,3,.5,4.5,3.2,8.9,5.9,14.2,7.5.6.2.9.8.7,1.4ZM232.6,42.8c.1.6-.2,1.2-.8,1.3l-11.2,2.8c-.6.1-1.1-.2-1.3-.8-.1-.6.2-1.2.8-1.3l11.2-2.8c.6-.1,1.2.2,1.3.8ZM240.2,47.3c.1.6-.2,1.1-.8,1.3l-12.5,3.1-2.7,7.9,11.6-4.4-2.3-1.5c-.5-.3-.7-1-.4-1.5.3-.5,1-.7,1.5-.3l7.4,4.6c.5.3.7,1,.3,1.5-.3.5-1,.7-1.5.3l-2.9-1.8-19,7.3c-.5.2-1.1,0-1.3-.6-.2-.5,0-1.2.6-1.4l3.2-1.2,2.8-8.2-8.1,2c-.6.1-1.2-.2-1.3-.8s.2-1.1.8-1.3l23.3-5.8c.6-.1,1.1.2,1.3.8Z"/>
      <path class="cls-6" d="M112.9,40.6c-.3.6-1.1.8-1.7.5-3.6-2-9.5-3.5-13.7-4.1-.7-.1-1.2-.7-1.1-1.4.1-.7.8-1.2,1.5-1.1,4.6.7,10.5,2.2,14.5,4.4.6.3.8,1.1.5,1.7ZM111,58.5c0,.7-.5,1.3-1.2,1.3-2.4,0-5.7-.3-9.1-1.2-2.7-.7-7.2-2-8.8-4.5-1-1.6-.8-3.5.2-5,.4-.6,1.2-.7,1.7-.3.6.4.8,1.2.4,1.7-.5.7-.7,1.4-.2,2.2,1,1.7,5.4,3,7.2,3.4,4,1,7.6,1.1,8.3,1.1s1.4.4,1.4,1.3Z"/>
      <path class="cls-1" d="M70,0H0v60h70V0Z"/>
      <g>
        <g>
          <g>
            <path class="cls-2" d="M47.9,25.8c.2-1,1.1-1.7,2.1-1.7h7.2c1,0,1.1-.4.2-.9l-11.3-6.5c-.8-.5-2.2-.5-3.1,0l-11.3,6.5c-.8.5-.7.9.2.9h7.2c1,0,1.9.8,2.1,1.7l3,16.6c.2,1,.5,1,.6,0l3-16.6Z"/>
            <path class="cls-2" d="M47.6,11.6c0,1.7-1.4,3-3,3s-3-1.4-3-3,1.4-3,3-3,3,1.4,3,3Z"/>
          </g>
          <g>
            <path class="cls-5" d="M26.6,34.4c-.7-.6-1-1.8-.5-2.7l3.6-6.2c.5-.8.2-1.1-.6-.6l-11.3,6.5c-.8.5-1.5,1.7-1.5,2.7v13.1c0,1,.4,1.1.9.2l3.6-6.2c.5-.8,1.6-1.3,2.5-.9l15.9,5.7c.9.3,1.1,0,.3-.5l-12.9-10.9Z"/>
            <path class="cls-5" d="M14.1,27.6c1.5.8,2,2.7,1.1,4.2-.8,1.5-2.7,2-4.2,1.1-1.5-.8-2-2.7-1.1-4.2.8-1.5,2.7-2,4.2-1.1Z"/>
          </g>
          <g>
            <path class="cls-7" d="M62.5,34.4c.7-.6,1-1.8.5-2.7l-3.6-6.2c-.5-.8-.2-1.1.6-.6l11.3,6.5c.8.5,1.5,1.7,1.5,2.7v13.1c0,1-.4,1.1-.9.2l-3.6-6.2c-.5-.8-1.6-1.3-2.6-.9l-15.9,5.7c-.9.3-1.1,0-.3-.5l12.9-10.9Z"/>
            <path class="cls-7" d="M75,27.6c-1.5.8-2,2.7-1.1,4.2.8,1.5,2.7,2,4.2,1.1,1.5-.8,2-2.7,1.1-4.2-.8-1.5-2.7-2-4.2-1.1Z"/>
          </g>
        </g>
        <g>
          <path class="cls-3" d="M15.8,50.9c-.9,0-.9.1,0,.3l27.2,5c.9.2,2.3.2,3.2,0l27.2-5c.9-.2.9-.3,0-.3H15.8Z"/>
          <path class="cls-3" d="M24.3,58.6c-.9,0-.9.1,0,.3l18.7,3.4c.9.2,2.3.2,3.2,0l18.7-3.4c.9-.2.9-.3,0-.3H24.3Z"/>
          <path class="cls-3" d="M29.5,64.7c-.9,0-.9.1,0,.3l13.4,2.5c.9.2,2.3.2,3.2,0l13.4-2.5c.9-.2.9-.3,0-.3h-30Z"/>
        </g>
      </g>
    </g>
  </g>
</svg>