<svg id="pin_yellow" data-name="pin yellow" xmlns="http://www.w3.org/2000/svg" xmlns:xlink="http://www.w3.org/1999/xlink" width="44.84" height="70.936" viewBox="0 0 44.84 70.936">
  <defs>
    <clipPath id="clip-path">
      <rect id="長方形_675" data-name="長方形 675" width="44.841" height="70.936" fill="none"/>
    </clipPath>
    <clipPath id="clip-path-2">
      <path id="パス_1020" data-name="パス 1020" d="M36.358,117.77a1.621,1.621,0,0,0-.444.939q-1.087,8.6-2.173,17.209c-.239,1.888,2.523,1.956,3.075.417l5.933-16.552a1.568,1.568,0,0,0-1.1-1.917l-3.76-.657a1.777,1.777,0,0,0-.306-.027,1.563,1.563,0,0,0-1.222.589" transform="translate(-33.726 -117.181)" fill="none"/>
    </clipPath>
  </defs>
  <g id="グループ_1746" data-name="グループ 1746">
    <g id="グループ_1745" data-name="グループ 1745" clip-path="url(#clip-path)">
      <path id="パス_1016" data-name="パス 1016" d="M33.74,135.436q1.033-8.383,2.067-16.766a1.6,1.6,0,0,1,.422-.915,1.474,1.474,0,0,1,1.453-.547l3.576.64a1.533,1.533,0,0,1,1.05,1.868l-5.643,16.125c-.525,1.5-3.151,1.433-2.925-.406" transform="translate(-19.335 -65.96)" fill="#8e8e8f"/>
    </g>
  </g>
  <g id="グループ_1748" data-name="グループ 1748" transform="translate(14.215 50.7)">
    <g id="グループ_1747" data-name="グループ 1747" clip-path="url(#clip-path-2)">
      <path id="パス_1017" data-name="パス 1017" d="M30.45,116.077q5.079,2.612,10.077,5.377a4.349,4.349,0,0,0,3.205.42,4.161,4.161,0,0,0,.994-7.6q-5-2.765-10.077-5.377a4.4,4.4,0,0,0-3.205-.42,4.242,4.242,0,0,0-2.486,1.912,4.159,4.159,0,0,0,1.492,5.691" transform="translate(-30.779 -112.303)" fill="#767676"/>
      <path id="パス_1018" data-name="パス 1018" d="M28.793,121.687q5.941,3.634,11.621,7.669a4.161,4.161,0,0,0,6.111-4.7,4.718,4.718,0,0,0-1.912-2.486q-5.677-4.033-11.621-7.669a4.16,4.16,0,1,0-4.2,7.184" transform="translate(-29.891 -115.4)" fill="#767676"/>
      <path id="パス_1019" data-name="パス 1019" d="M25.818,128.384a66.665,66.665,0,0,1,13.438,8.2c1.768,1.389,4.638.4,5.725-1.355,1.291-2.091.418-4.332-1.355-5.725a66.665,66.665,0,0,0-13.438-8.2c-2.04-.936-4.443-.722-5.725,1.355-1.067,1.73-.7,4.783,1.355,5.725" transform="translate(-28.298 -119.162)" fill="#767676"/>
    </g>
  </g>
  <g id="グループ_1750" data-name="グループ 1750">
    <g id="グループ_1749" data-name="グループ 1749" clip-path="url(#clip-path)">
      <path id="パス_1021" data-name="パス 1021" d="M.05,75.214c.8,10.659,10.922,18.558,22.615,17.641s20.526-10.3,19.73-20.962S31.472,53.336,19.78,54.253-.747,64.554.05,75.214" transform="translate(0 -30.497)" fill="#dd8d00"/>
      <path id="パス_1022" data-name="パス 1022" d="M4.02,67.457c.759,10.15,10.4,17.671,21.535,16.8s19.546-9.81,18.787-19.96-10.4-17.671-21.535-16.8S3.261,57.307,4.02,67.457" transform="translate(-2.277 -26.697)" fill="#f0bd12"/>
      <path id="パス_1023" data-name="パス 1023" d="M21.618,52.191l9.259-20.766L46.56,36.057l-.148,20.282c-.423,4.77-2.02,8.014-6.688,9.82-6.511,2.517-14.673.733-17.13-5.936-.924-2.508-1.542-5.607-.976-8.031" transform="translate(-12.269 -17.689)" fill="#d7941e"/>
      <path id="パス_1024" data-name="パス 1024" d="M18.856,21.322c-1.334,8.694,5.764,17.059,15.854,18.683S54.062,35.9,55.4,27.206,49.632,10.147,39.543,8.522s-19.352,4.106-20.686,12.8" transform="translate(-10.718 -4.642)" fill="#dd8d00"/>
      <path id="パス_1025" data-name="パス 1025" d="M22.215,12.523C20.937,20.85,27.735,28.861,37.4,30.418s18.534-3.933,19.812-12.259S51.691,1.821,42.027.264,23.493,4.2,22.215,12.523" transform="translate(-12.647 0)" fill="#f0bd12"/>
    </g>
  </g>
</svg>
