<svg id="pin_pink" xmlns="http://www.w3.org/2000/svg" xmlns:xlink="http://www.w3.org/1999/xlink" width="46.444" height="71.727" viewBox="0 0 46.444 71.727">
  <defs>
    <clipPath id="clip-path">
      <rect id="長方形_677" data-name="長方形 677" width="46.444" height="71.727" fill="none"/>
    </clipPath>
    <clipPath id="clip-path-2">
      <path id="パス_1030" data-name="パス 1030" d="M36.319,117.761a1.6,1.6,0,0,0-.437.925q-1.071,8.476-2.141,16.952c-.235,1.859,2.485,1.927,3.029.411l5.844-16.305a1.546,1.546,0,0,0-1.087-1.889l-3.7-.647a1.75,1.75,0,0,0-.3-.027,1.539,1.539,0,0,0-1.2.58" transform="translate(-33.726 -117.181)" fill="none"/>
    </clipPath>
  </defs>
  <g id="グループ_1753" data-name="グループ 1753">
    <g id="グループ_1752" data-name="グループ 1752" clip-path="url(#clip-path)">
      <path id="パス_1026" data-name="パス 1026" d="M33.741,135.639q1.07-8.476,2.141-16.953a1.6,1.6,0,0,1,.437-.925,1.546,1.546,0,0,1,1.5-.553l3.7.648a1.546,1.546,0,0,1,1.088,1.889l-5.845,16.3c-.544,1.516-3.264,1.449-3.029-.41" transform="translate(-18.82 -65.389)" fill="#8e8e8f"/>
    </g>
  </g>
  <g id="グループ_1755" data-name="グループ 1755" transform="translate(14.907 51.792)">
    <g id="グループ_1754" data-name="グループ 1754" clip-path="url(#clip-path-2)">
      <path id="パス_1027" data-name="パス 1027" d="M30.42,115.961q5,2.573,9.927,5.3a4.284,4.284,0,0,0,3.158.413,4.1,4.1,0,0,0,.979-7.49q-4.923-2.724-9.927-5.3a4.337,4.337,0,0,0-3.158-.413,4.179,4.179,0,0,0-2.449,1.883,4.1,4.1,0,0,0,1.47,5.607" transform="translate(-30.743 -112.244)" fill="#767676"/>
      <path id="パス_1028" data-name="パス 1028" d="M28.763,121.572q5.852,3.58,11.448,7.555a4.1,4.1,0,0,0,6.02-4.628,4.648,4.648,0,0,0-1.883-2.449Q38.754,118.078,32.9,114.5a4.1,4.1,0,1,0-4.137,7.077" transform="translate(-29.845 -115.378)" fill="#767676"/>
      <path id="パス_1029" data-name="パス 1029" d="M25.789,128.27a65.673,65.673,0,0,1,13.237,8.08c1.741,1.368,4.569.4,5.639-1.335,1.272-2.06.411-4.267-1.334-5.639a65.672,65.672,0,0,0-13.237-8.08c-2.01-.922-4.377-.711-5.64,1.335-1.051,1.7-.688,4.711,1.335,5.639" transform="translate(-28.232 -119.186)" fill="#767676"/>
    </g>
  </g>
  <g id="グループ_1757" data-name="グループ 1757">
    <g id="グループ_1756" data-name="グループ 1756" clip-path="url(#clip-path)">
      <path id="パス_1031" data-name="パス 1031" d="M.052,75.449C.877,86.227,11.364,94.213,23.475,93.285s21.26-10.416,20.435-21.2S32.6,53.326,20.487,54.254-.773,64.67.052,75.449" transform="translate(0 -30.233)" fill="#c85867"/>
      <path id="パス_1032" data-name="パス 1032" d="M4.022,67.68c.786,10.263,10.772,17.868,22.3,16.985s20.245-9.919,19.459-20.183S35.013,46.614,23.481,47.5,3.236,57.416,4.022,67.68" transform="translate(-2.217 -26.465)" fill="#dc7683"/>
      <path id="パス_1033" data-name="パス 1033" d="M21.626,52.422l9.59-21L47.46,36.108l-.153,20.508c-.438,4.824-2.092,8.1-6.927,9.929-6.743,2.546-15.2.742-17.743-6-.957-2.536-1.6-5.67-1.011-8.121" transform="translate(-11.942 -17.536)" fill="#c0586e"/>
      <path id="パス_1034" data-name="パス 1034" d="M18.862,21.468c-1.382,8.791,5.97,17.249,16.421,18.892s20.044-4.151,21.426-12.942S50.739,10.168,40.288,8.525,20.244,12.677,18.862,21.468" transform="translate(-10.432 -4.602)" fill="#c85867"/>
      <path id="パス_1035" data-name="パス 1035" d="M22.22,12.663c-1.323,8.419,5.718,16.52,15.728,18.094s19.2-3.977,20.521-12.4S52.75,1.841,42.741.267s-19.2,3.976-20.521,12.4" transform="translate(-12.31 0)" fill="#dc7683"/>
    </g>
  </g>
</svg>
