<svg id="pin_green" xmlns="http://www.w3.org/2000/svg" xmlns:xlink="http://www.w3.org/1999/xlink" width="45.149" height="69.727" viewBox="0 0 45.149 69.727">
  <defs>
    <clipPath id="clip-path">
      <rect id="長方形_673" data-name="長方形 673" width="45.149" height="69.727" fill="none"/>
    </clipPath>
    <clipPath id="clip-path-2">
      <path id="パス_1005" data-name="パス 1005" d="M36.246,117.745a1.552,1.552,0,0,0-.425.9q-1.041,8.24-2.081,16.48c-.229,1.808,2.416,1.873,2.945.4l5.681-15.851a1.5,1.5,0,0,0-1.057-1.836l-3.6-.629a1.7,1.7,0,0,0-.293-.026,1.5,1.5,0,0,0-1.17.564" transform="translate(-33.726 -117.181)" fill="none"/>
    </clipPath>
  </defs>
  <g id="グループ_1738" data-name="グループ 1738">
    <g id="グループ_1737" data-name="グループ 1737" clip-path="url(#clip-path)">
      <path id="パス_1001" data-name="パス 1001" d="M33.741,135.124q1.04-8.24,2.081-16.48a1.549,1.549,0,0,1,.425-.9,1.5,1.5,0,0,1,1.463-.538l3.6.629a1.5,1.5,0,0,1,1.057,1.836l-5.682,15.85c-.528,1.474-3.173,1.408-2.945-.4" transform="translate(-19.236 -66.833)" fill="#8e8e8f"/>
    </g>
  </g>
  <g id="グループ_1740" data-name="グループ 1740" transform="translate(14.491 50.348)">
    <g id="グループ_1739" data-name="グループ 1739" clip-path="url(#clip-path-2)">
      <path id="パス_1002" data-name="パス 1002" d="M30.363,115.749q4.864,2.5,9.65,5.149a4.165,4.165,0,0,0,3.07.4,3.985,3.985,0,0,0,.952-7.281q-4.785-2.648-9.65-5.15a4.216,4.216,0,0,0-3.07-.4,4.062,4.062,0,0,0-2.381,1.831,3.983,3.983,0,0,0,1.429,5.45" transform="translate(-30.677 -112.135)" fill="#767676"/>
      <path id="パス_1003" data-name="パス 1003" d="M28.707,121.359q5.689,3.48,11.129,7.344a3.985,3.985,0,0,0,5.852-4.5,4.519,4.519,0,0,0-1.831-2.381q-5.437-3.862-11.129-7.344a3.984,3.984,0,0,0-4.021,6.879" transform="translate(-29.759 -115.338)" fill="#767676"/>
      <path id="パス_1004" data-name="パス 1004" d="M25.736,128.061A63.841,63.841,0,0,1,38.6,135.916c1.693,1.33,4.442.388,5.482-1.3,1.236-2,.4-4.148-1.3-5.482a63.826,63.826,0,0,0-12.868-7.855c-1.954-.9-4.255-.691-5.482,1.3-1.022,1.657-.669,4.58,1.3,5.482" transform="translate(-28.111 -119.23)" fill="#767676"/>
    </g>
  </g>
  <g id="グループ_1742" data-name="グループ 1742">
    <g id="グループ_1741" data-name="グループ 1741" clip-path="url(#clip-path)">
      <path id="パス_1006" data-name="パス 1006" d="M.05,74.856c.8,10.478,11,18.241,22.77,17.34s20.668-10.126,19.865-20.6-11-18.241-22.77-17.339S-.752,64.377.05,74.856" transform="translate(0 -30.901)" fill="#658920"/>
      <path id="パス_1007" data-name="パス 1007" d="M4.02,67.116c.764,9.977,10.472,17.37,21.683,16.511s19.68-9.642,18.916-19.62S34.148,46.637,22.937,47.5,3.257,57.138,4.02,67.116" transform="translate(-2.266 -27.05)" fill="#8ba932"/>
      <path id="パス_1008" data-name="パス 1008" d="M21.619,51.837l9.322-20.412,15.792,4.553-.149,19.936c-.426,4.689-2.034,7.877-6.734,9.652-6.555,2.474-14.774.721-17.248-5.834-.931-2.465-1.553-5.512-.983-7.895" transform="translate(-12.206 -17.923)" fill="#74893a"/>
      <path id="パス_1009" data-name="パス 1009" d="M18.858,21.1c-1.344,8.546,5.8,16.768,15.963,18.365s19.485-4.035,20.828-12.581-5.8-16.768-15.963-18.365S20.2,12.553,18.858,21.1" transform="translate(-10.663 -4.704)" fill="#658920"/>
      <path id="パス_1010" data-name="パス 1010" d="M22.216,12.31C20.929,20.494,27.774,28.369,37.5,29.9s18.662-3.866,19.948-12.05S51.895,1.79,42.164.26,23.5,4.125,22.216,12.31" transform="translate(-12.582 0)" fill="#8ba932"/>
    </g>
  </g>
</svg>
