<svg  id="ピン画像"  xmlns="http://www.w3.org/2000/svg"  xmlns:xlink="http://www.w3.org/1999/xlink"  width="29.532"  height="45.609"  viewBox="0  0  29.532  45.609">
    <defs>
        <clipPath  id="clip-path">
            <rect  id="長方形_647"  data-name="長方形  647"  width="29.532"  height="45.609"  fill="rgba(0,0,0,0)"/>
        </clipPath>
        <clipPath  id="clip-path-2">
            <path  id="パス_953"  data-name="パス  953"  d="M35.375,117.55a1.015,1.015,0,0,0-.278.588q-.681,5.39-1.361,10.779c-.15,1.182,1.58,1.225,1.926.261l3.716-10.368a.983.983,0,0,0-.691-1.2l-2.355-.411a1.112,1.112,0,0,0-.191-.017.979.979,0,0,0-.765.369"  transform="translate(-33.726  -117.181)"  fill="rgba(0,0,0,0)"/>
        </clipPath>
    </defs>
    <g  id="グループ_1661"  data-name="グループ  1661">
        <g  id="グループ_1660"  data-name="グループ  1660"  clip-path="url(#clip-path)">
            <path  id="パス_949"  data-name="パス  949"  d="M33.736,128.918q.68-5.39,1.361-10.78a1.013,1.013,0,0,1,.278-.588.983.983,0,0,1,.957-.352l2.355.412a.983.983,0,0,1,.692,1.2l-3.717,10.368c-.346.964-2.076.921-1.926-.261"  transform="translate(-24.248  -84.248)"  fill="#8e8e8f"/>
        </g>
    </g>
    <g  id="グループ_1663"  data-name="グループ  1663"  transform="translate(9.479  32.933)">
        <g  id="グループ_1662"  data-name="グループ  1662"  clip-path="url(#clip-path-2)">
            <path  id="パス_950"  data-name="パス  950"  d="M29.677,113.184q3.182,1.636,6.312,3.368a2.724,2.724,0,0,0,2.008.263,2.606,2.606,0,0,0,.623-4.763q-3.13-1.732-6.312-3.368a2.758,2.758,0,0,0-2.008-.263,2.657,2.657,0,0,0-1.557,1.2,2.605,2.605,0,0,0,.935,3.565"  transform="translate(-29.882  -110.82)"  fill="#767676"/>
            <path  id="パス_951"  data-name="パス  951"  d="M28.037,118.8q3.721,2.276,7.279,4.8a2.606,2.606,0,0,0,3.828-2.943,2.956,2.956,0,0,0-1.2-1.557q-3.556-2.526-7.279-4.8a2.606,2.606,0,0,0-2.63,4.5"  transform="translate(-28.725  -114.858)"  fill="#767676"/>
            <path  id="パス_952"  data-name="パス  952"  d="M25.094,125.54a41.76,41.76,0,0,1,8.417,5.138,2.621,2.621,0,0,0,3.586-.849,2.669,2.669,0,0,0-.849-3.586,41.749,41.749,0,0,0-8.417-5.138,2.691,2.691,0,0,0-3.586.849,2.623,2.623,0,0,0,.849,3.586"  transform="translate(-26.647  -119.764)"  fill="#767676"/>
        </g>
    </g>
    <g  id="グループ_1665"  data-name="グループ  1665">
        <g  id="グループ_1664"  data-name="グループ  1664"  clip-path="url(#clip-path)">
            <path  id="パス_954"  data-name="パス  954"  d="M.033,67.7c.525,6.854,7.193,11.932,14.894,11.342s13.519-6.623,12.994-13.477S20.728,53.637,13.027,54.227-.492,60.85.033,67.7"  transform="translate(0  -38.953)"  fill="#3996bb"/>
            <path  id="パス_955"  data-name="パス  955"  d="M4,60.305c.5,6.526,6.85,11.362,14.183,10.8S31.06,64.8,30.56,58.272s-6.85-11.362-14.183-10.8S3.5,53.779,4,60.305"  transform="translate(-2.856  -34.098)"  fill="#65b6d5"/>
            <path  id="パス_956"  data-name="パス  956"  d="M21.544,44.777l6.1-13.352L37.971,34.4l-.1,13.04c-.279,3.067-1.33,5.153-4.4,6.313-4.288,1.619-9.663.472-11.282-3.816a9.508,9.508,0,0,1-.643-5.164"  transform="translate(-15.386  -22.593)"  fill="#4d95b7"/>
            <path  id="パス_957"  data-name="パス  957"  d="M18.8,16.654c-.879,5.59,3.8,10.968,10.442,12.013s12.745-2.64,13.624-8.23S39.071,9.469,32.425,8.424,19.68,11.064,18.8,16.654"  transform="translate(-13.441  -5.929)"  fill="#3996bb"/>
            <path  id="パス_958"  data-name="パス  958"  d="M22.162,8.052c-.842,5.354,3.636,10.5,10,11.505s12.207-2.529,13.048-7.882S41.575,1.171,35.21.17,23,2.7,22.162,8.052"  transform="translate(-15.86  0)"  fill="#65b6d5"/>
        </g>
    </g>
</svg>
