<svg  xmlns="http://www.w3.org/2000/svg"  xmlns:xlink="http://www.w3.org/1999/xlink"  width="15.821"  height="20.029"  viewBox="0  0  15.821  20.029">
    <defs>
        <clipPath  id="clip-path">
            <rect  id="長方形_650"  data-name="長方形  650"  width="15.821"  height="20.029"  fill="#b44906"/>
        </clipPath>
    </defs>
    <g  id="グループ_1675"  data-name="グループ  1675"  clip-path="url(#clip-path)">
        <path  id="パス_959"  data-name="パス  959"  d="M14.948,15.277A4.863,4.863,0,0,0,13.223,13.5a2.118,2.118,0,0,0-2.17.138,4.792,4.792,0,0,0-1.523,1.55,8.521,8.521,0,0,1-3.919-3.447A8.067,8.067,0,0,1,4.135,6.736,4.99,4.99,0,0,0,6.23,6.11,1.98,1.98,0,0,0,7.324,4.292a4.694,4.694,0,0,0-.872-2.283A4.864,4.864,0,0,0,4.727.236a2.118,2.118,0,0,0-2.17.138A5.032,5.032,0,0,0,.633,2.688a4.378,4.378,0,0,0-.248.8A6,6,0,0,0,.1,4.69c-.351,2.6.229,5.451,2.459,8.9s4.62,5.2,7.195,6.04a6.543,6.543,0,0,0,1.312.283,4.9,4.9,0,0,0,.666.1,5.309,5.309,0,0,0,3-.635,1.981,1.981,0,0,0,1.094-1.818,4.694,4.694,0,0,0-.872-2.283"  transform="translate(0  0)"  fill="#b44906"/>
    </g>
</svg>
